<svg width="97" height="96" viewBox="0 0 97 96" fill="none" xmlns="http://www.w3.org/2000/svg">
<path d="M48.5 8C26.456 8 8.5 25.956 8.5 48C8.5 70.044 26.456 88 48.5 88C70.544 88 88.5 70.044 88.5 48C88.5 25.956 70.544 8 48.5 8ZM48.5 16C66.2205 16 80.5 30.2795 80.5 48C80.5 65.7205 66.2205 80 48.5 80C30.7795 80 16.5 65.7205 16.5 48C16.5 30.2795 30.7795 16 48.5 16ZM35.3281 29.1719L29.6719 34.8281L42.8438 48L29.6719 61.1719L35.3281 66.8281L48.5 53.6562L61.6719 66.8281L67.3281 61.1719L54.1562 48L67.3281 34.8281L61.6719 29.1719L48.5 42.3438L35.3281 29.1719Z" fill="#EB3223"/>
</svg>
